PathFileType  4	(X/Y/Z) C:\Users\hpl\Documents\MyRepositories\mocap-processing\Data\treadmill\Subject1\Edited\
DataRate	CameraRate	NumFrames	NumMarkers	Units	OrigDataRate	OrigDataStartFrame	OrigNumFrames
   50.0		   50.0		   9		     34		 mm	   50.0	      1181	   3148
Frame#	Time	r_knee			r_shank(antsup)			r_ankle			r_calc			r_5meta			r_toe			L_knee			L_shank(ant_sup)			L_ankle			L_calc			L_5meta			L_toe			r_sh2			r_sh3			r_sh4			L_sh2			L_sh3			r_thigh1			r_thigh2			r_thigh3			r_thigh4			r_thigh5			L_thigh1			L_thigh2			L_thigh3			L_thigh4			r.ASIS			r.PSIS			L.ASIS			L.PSIS			C7			R_Shoulder			L_Shoulder			Sternum			
		X1	Y1	Z1	X2	Y2	Z2	X3	Y3	Z3	X4	Y4	Z4	X5	Y5	Z5	X6	Y6	Z6	X7	Y7	Z7	X8	Y8	Z8	X9	Y9	Z9	X10	Y10	Z10	X11	Y11	Z11	X12	Y12	Z12	X13	Y13	Z13	X14	Y14	Z14	X15	Y15	Z15	X16	Y16	Z16	X17	Y17	Z17	X18	Y18	Z18	X19	Y19	Z19	X20	Y20	Z20	X21	Y21	Z21	X22	Y22	Z22	X23	Y23	Z23	X24	Y24	Z24	X25	Y25	Z25	X26	Y26	Z26	X27	Y27	Z27	X28	Y28	Z28	X29	Y29	Z29	X30	Y30	Z30	X31	Y31	Z31	X32	Y32	Z32	X33	Y33	Z33	X34	Y34	Z34	

1181	23.60000	1047.952	567.515	-406.597	1025.439	482.933	-405.596	721.983	247.124	-437.081	639.144	302.235	-471.637	716.655	107.751	-442.870	770.041	109.919	-505.356	1029.786	567.865	-703.758	1065.875	447.944	-692.861	987.874	107.073	-671.973	906.615	71.941	-627.836	1145.958	75.551	-633.643	1109.164	42.453	-695.052	939.072	399.612	-411.852	970.908	535.287	-399.884	882.192	460.824	-402.137	978.141	462.820	-717.494	971.029	340.223	-709.458	1024.651	888.884	-392.426	1060.817	779.814	-389.741	1024.133	733.904	-383.905	918.590	848.779	-398.914	961.870	740.232	-406.404	1056.969	845.699	-741.464	1087.027	711.049	-725.721	941.366	820.247	-749.290	976.286	689.732	-726.150	1015.086	1081.741	-441.236	828.056	1098.296	-533.090	1024.994	1099.026	-695.412	832.524	1103.320	-615.445	918.224	1597.934	-587.600	970.567	1560.408	-420.239	978.076	1550.494	-767.668	1055.856	1515.790	-583.636
1182	23.62000	1065.633	576.724	-404.980	1048.027	490.008	-404.968	756.556	239.586	-437.838	669.322	287.136	-474.216	763.169	100.653	-441.631	817.055	106.660	-503.356	1015.503	567.545	-701.848	1049.182	446.911	-690.654	963.833	107.701	-670.851	881.363	72.359	-627.046	1121.242	75.059	-633.161	1084.366	42.681	-694.875	966.151	402.218	-412.273	990.874	538.847	-395.205	906.172	459.938	-398.706	961.912	462.852	-716.340	952.159	341.366	-709.188	1027.710	896.936	-392.198	1067.869	788.314	-390.489	1032.716	741.309	-382.872	922.346	852.208	-397.947	970.123	745.298	-405.018	1052.058	844.973	-738.552	1078.018	709.465	-721.633	936.070	822.133	-750.341	967.340	691.271	-725.572	1011.279	1086.998	-441.746	825.489	1103.036	-535.011	1023.686	1100.838	-695.877	831.280	1107.425	-617.364	915.772	1600.690	-588.637	965.780	1563.913	-420.639	977.385	1554.377	-768.027	1053.760	1519.330	-583.137
1183	23.64000	1080.912	585.013	-403.543	1067.316	497.813	-403.564	794.011	229.504	-437.614	701.985	266.536	-476.818	815.650	92.369	-439.032	868.641	102.422	-500.280	1000.408	567.360	-700.503	1031.489	446.005	-688.497	939.537	108.255	-670.097	856.716	73.069	-626.628	1096.545	74.617	-632.561	1059.322	42.826	-694.578	991.712	404.641	-411.658	1006.792	542.153	-392.571	927.926	457.605	-397.114	944.999	463.329	-716.410	933.102	341.576	-708.747	1029.411	905.396	-391.582	1071.932	798.178	-388.209	1040.113	750.542	-381.836	925.367	856.365	-395.178	977.258	751.200	-401.968	1046.539	843.996	-735.997	1068.532	708.065	-718.222	929.682	824.826	-751.217	957.424	692.585	-725.470	1007.411	1092.057	-442.070	822.793	1107.566	-536.659	1022.763	1102.411	-695.947	830.104	1111.352	-619.250	913.473	1603.361	-589.584	961.390	1567.241	-421.179	977.931	1557.918	-768.231	1051.364	1522.240	-582.334
1184	23.66000	1092.170	594.002	-402.975	1083.440	505.234	-401.512	833.266	215.994	-437.445	738.149	241.452	-479.377	871.010	83.353	-434.685	923.148	97.742	-495.123	984.124	567.161	-699.465	1012.313	445.326	-687.306	915.098	108.985	-669.551	831.968	73.926	-626.956	1071.611	74.402	-632.630	1034.372	42.940	-694.462	1015.972	406.050	-410.374	1019.547	544.798	-391.915	947.761	453.842	-397.670	926.837	463.595	-716.156	913.252	342.205	-708.672	1029.773	913.792	-391.199	1077.933	809.977	-386.639	1046.304	759.417	-379.483	927.691	861.045	-391.382	983.412	757.779	-396.733	1040.495	842.842	-733.285	1057.126	706.001	-715.454	923.510	826.936	-752.136	946.483	693.805	-725.945	1003.525	1096.174	-442.625	820.430	1111.520	-538.284	1022.117	1103.298	-695.400	828.864	1115.014	-620.697	911.540	1605.562	-590.303	957.256	1569.831	-421.616	978.464	1561.143	-767.961	1049.257	1524.773	-581.424
1185	23.68000	1100.924	602.023	-401.710	1097.021	512.332	-399.750	875.177	200.427	-436.545	778.830	214.024	-481.787	927.981	73.512	-430.157	981.053	93.677	-488.535	967.542	566.763	-698.784	992.433	444.509	-686.434	890.768	109.538	-669.139	807.180	74.130	-626.210	1046.834	73.763	-631.980	1009.452	43.011	-694.199	1038.982	407.414	-408.173	1029.526	546.191	-393.923	966.302	449.160	-399.298	907.925	464.172	-715.891	892.376	342.832	-708.176	1028.455	921.794	-390.616	1079.188	818.382	-386.243	1051.619	768.649	-376.304	929.215	865.654	-387.021	988.042	763.948	-391.130	1033.491	841.208	-730.760	1046.378	704.254	-712.497	916.678	828.580	-752.836	935.378	694.854	-726.215	1000.227	1098.717	-442.828	817.740	1114.385	-539.505	1021.017	1103.163	-694.624	827.413	1117.556	-621.730	909.710	1607.127	-590.937	953.312	1571.654	-421.890	979.589	1563.538	-767.398	1047.520	1526.673	-580.254
1186	23.70000	1106.706	608.730	-400.417	1107.778	518.634	-398.136	920.039	183.933	-435.128	823.968	185.511	-483.758	986.626	64.443	-424.039	1038.733	89.256	-482.080	950.176	566.490	-698.213	972.269	443.836	-686.190	866.755	110.224	-668.950	782.309	74.471	-626.036	1023.784	74.771	-632.074	984.486	43.067	-694.092	1060.265	408.325	-405.381	1037.286	545.985	-396.956	983.711	443.136	-400.953	887.980	464.714	-715.447	870.919	343.678	-707.947	1027.797	928.011	-390.340	1080.686	825.922	-385.367	1055.441	775.963	-372.457	930.312	869.705	-382.372	991.629	769.417	-386.235	1025.806	839.076	-728.524	1034.497	701.960	-710.070	909.658	830.504	-754.653	923.183	695.581	-726.772	996.768	1100.440	-443.263	815.202	1116.287	-539.821	1019.501	1102.262	-693.953	825.788	1119.376	-622.213	908.382	1607.928	-591.456	949.616	1572.529	-421.873	981.249	1565.060	-766.728	1046.081	1527.670	-578.873
1187	23.72000	1109.277	612.967	-399.152	1115.420	522.952	-396.170	967.324	167.484	-433.003	873.546	157.549	-484.393	1047.141	56.853	-418.790	1097.726	87.412	-474.925	932.299	566.091	-697.881	952.120	443.415	-685.747	841.918	110.762	-668.151	757.562	75.071	-625.774	997.435	73.486	-632.099	959.485	42.908	-693.918	1080.116	408.037	-402.345	1042.491	542.846	-398.887	1000.326	434.742	-402.357	868.078	465.177	-715.227	849.416	344.313	-707.680	1027.076	932.387	-389.635	1081.840	831.084	-385.036	1057.991	781.195	-368.757	931.039	872.372	-378.044	994.469	774.040	-381.418	1017.896	836.632	-726.638	1022.108	699.329	-707.984	902.117	831.187	-754.986	910.946	696.323	-727.454	994.278	1101.597	-442.918	812.626	1117.291	-539.466	1016.725	1100.379	-693.757	823.715	1119.981	-621.785	907.537	1608.031	-591.759	946.082	1572.493	-421.712	982.972	1565.475	-765.886	1045.000	1527.846	-577.248
1188	23.74000	1107.860	613.950	-398.434	1119.992	524.318	-394.157	1016.799	152.414	-430.370	926.624	130.857	-485.100	1109.018	52.004	-412.938	1157.126	88.637	-467.175	914.384	565.815	-697.626	931.866	443.041	-685.618	817.451	111.414	-667.834	732.615	75.635	-625.632	973.304	73.056	-631.801	934.364	42.890	-694.185	1099.041	405.984	-399.394	1045.245	535.634	-398.925	1016.538	423.077	-402.797	848.027	466.081	-714.789	827.823	345.379	-707.585	1025.612	933.832	-388.650	1081.704	833.128	-385.002	1058.574	784.202	-368.099	929.916	873.509	-374.480	994.979	775.039	-379.452	1009.195	833.767	-725.390	1009.288	696.554	-706.359	893.845	831.569	-755.443	898.554	696.678	-727.244	991.972	1101.365	-442.869	810.545	1117.104	-538.817	1015.219	1098.443	-693.390	821.512	1119.482	-620.953	907.028	1607.229	-591.966	942.900	1571.598	-421.418	985.119	1564.773	-764.969	1044.093	1526.849	-575.575
1189	23.76000	1103.983	611.885	-397.588	1122.423	522.731	-392.349	1067.942	139.957	-427.063	982.422	107.980	-484.183	1170.756	50.986	-407.441	1215.883	93.065	-460.306	896.174	565.356	-697.504	911.090	442.805	-685.992	792.916	112.123	-667.565	708.134	76.379	-625.401	948.141	72.527	-632.118	909.478	42.817	-694.313	1116.115	402.695	-396.818	1047.058	524.547	-397.961	1032.255	409.466	-401.808	827.353	467.117	-714.469	805.742	346.619	-707.266	1022.958	932.289	-387.158	1079.827	831.975	-383.801	1056.717	782.906	-366.175	929.862	871.500	-372.907	993.316	773.768	-379.254	1000.435	830.959	-724.279	996.455	693.861	-705.251	885.855	832.179	-755.936	886.219	696.758	-727.010	990.017	1100.142	-442.297	808.484	1115.592	-537.589	1012.843	1095.891	-692.913	819.585	1117.501	-619.694	906.963	1605.460	-591.984	940.301	1569.838	-420.867	987.203	1563.078	-763.872	1043.588	1525.007	-573.659
